<svg width="20" height="20" viewBox="0 0 20 20" fill="none" xmlns="http://www.w3.org/2000/svg" class="svg-fill">
<path d="M5.00008 2.5C5.2211 2.5 5.43306 2.5878 5.58934 2.74408C5.74562 2.90036 5.83341 3.11232 5.83341 3.33333V4.06667C6.71675 3.7 7.91675 3.33333 9.16675 3.33333C11.6667 3.33333 11.6667 5 13.3334 5C15.8334 5 16.6667 3.33333 16.6667 3.33333V10C16.6667 10 15.8334 11.6667 13.3334 11.6667C10.8334 11.6667 10.8334 10 9.16675 10C6.66675 10 5.83341 11.6667 5.83341 11.6667V17.5H4.16675V3.33333C4.16675 3.11232 4.25455 2.90036 4.41083 2.74408C4.56711 2.5878 4.77907 2.5 5.00008 2.5Z" fill="#B91C1C"/>
</svg>
