<svg width="24" height="24" viewBox="0 0 24 24" fill="none" xmlns="http://www.w3.org/2000/svg" class="svg-fill">
<path fill-rule="evenodd" clip-rule="evenodd" d="M5.6 19.7273L4.31818 18.4455L5.94545 16.8091L7.23636 18.1L5.6 19.7273ZM6.54545 12C6.54545 8.99091 8.99091 6.54545 12 6.54545C15.0091 6.54545 17.4545 8.98182 17.4545 12C17.4545 15.0091 15.0091 17.4545 12 17.4545C8.99091 17.4545 6.54545 15.0091 6.54545 12ZM22 12.9091H19.2727V11.0909H22V12.9091ZM18.4 19.7273L16.7636 18.1L18.0545 16.8091L19.6818 18.4455L18.4 19.7273ZM18.4 4.36364L19.6818 5.63636L18.0545 7.28182L16.7636 5.99091L18.4 4.36364ZM11.0909 2H12.9091V4.72727H11.0909V2ZM5.6 4.36364L7.23636 5.99091L5.94545 7.28182L4.31818 5.63636L5.6 4.36364ZM4.72727 12.9091H2V11.0909H4.72727V12.9091ZM11.0909 22V19.2727H12.9091V22H11.0909ZM12 15.6364C14.0083 15.6364 15.6364 14.0083 15.6364 12C15.6364 9.9917 14.0083 8.36364 12 8.36364C9.99172 8.36364 8.36366 9.9917 8.36366 12C8.36366 14.0083 9.99172 15.6364 12 15.6364Z" fill="#71717A"/>
</svg>
