<svg width="24" height="24" viewBox="0 0 24 24" fill="none" xmlns="http://www.w3.org/2000/svg">
<path fill-rule="evenodd" clip-rule="evenodd" d="M12 22C17.5228 22 22 17.5228 22 12C22 6.47715 17.5228 2 12 2C6.47715 2 2 6.47715 2 12C2 17.5228 6.47715 22 12 22ZM11.4444 7.55556C11.4444 7.24873 11.6932 7 12 7C12.3068 7 12.5556 7.24873 12.5556 7.55556V11.4444H16.4444C16.7513 11.4444 17 11.6932 17 12C17 12.3068 16.7513 12.5556 16.4444 12.5556H12.5556V16.4444C12.5556 16.7513 12.3068 17 12 17C11.6932 17 11.4444 16.7513 11.4444 16.4444V12.5556H7.55556C7.24873 12.5556 7 12.3068 7 12C7 11.6932 7.24873 11.4444 7.55556 11.4444H11.4444V7.55556Z" fill="#3B82F6"/>
</svg>
